<svg id="Layer_1" data-name="Layer 1" xmlns="http://www.w3.org/2000/svg" viewBox="0 0 148.28418 79.03076"><defs><style>.cls-1{fill:#ffffff;}</style></defs><title>DC-logo-cmyk</title><path class="cls-1" d="M11.38916,2.66016c8.853,0,15.25439,5.77734,15.25439,14.04882,0,8.396-6.40136,14.21534-15.25439,14.21534H0V2.66016Zm0,21.94629a7.81944,7.81944,0,1,0,0-15.62842H7.0249V24.60645Z"/><path class="cls-1" d="M30.24023,3.82373a3.95078,3.95078,0,0,1,7.89747,0,3.95238,3.95238,0,0,1-7.89747,0Zm7.35743,27.10059H30.86377V10.76514h6.73389Z"/><path class="cls-1" d="M55.35449,30.92432H48.95312L40.22461,10.76514H47.332L52.1543,22.40332l4.82129-11.63818H64.083Z"/><path class="cls-1" d="M85.63867,22.69434l.042.125H71.29883a4.35452,4.35452,0,0,0,4.53125,3.2417,3.4659,3.4659,0,0,0,3.07519-1.45459h6.65039c-.95605,4.15673-4.82128,6.7749-9.80859,6.7749-6.60937,0-11.01465-4.40576-11.01465-10.55713,0-6.11035,4.28125-10.51611,10.72363-10.51611,5.86036,0,10.30762,4.03173,10.30762,10.10009A14.02006,14.02006,0,0,1,85.63867,22.69434ZM71.21582,18.87061h8.23047a3.735,3.735,0,0,0-3.99024-3.3667A4.11716,4.11716,0,0,0,71.21582,18.87061Z"/><path class="cls-1" d="M103.28906,16.834c-3.2832.12452-5.3623.99756-6.9414,2.57666V30.92432h-6.7334V10.76514h6.7334v2.16162a10.08851,10.08851,0,0,1,6.9414-2.49414Z"/><path class="cls-1" d="M111.11133,24.02441c.291,1.74561,1.74609,2.53565,3.86621,2.53565,1.78711,0,2.86816-.54053,2.86816-1.41309,0-.665-.624-1.20556-1.9541-1.41357l-4.07324-.70654c-3.49121-.582-5.90234-2.53516-5.90234-6.06836,0-4.23975,3.61621-6.7334,8.97851-6.7334,4.28125,0,9.14356,1.6626,9.43457,6.98291h-5.98535c-.124-1.53809-1.53809-2.24463-3.4082-2.24463-1.7461,0-2.53516.665-2.53516,1.45459,0,.665.499,1.28857,2.07813,1.57959l3.78222.62353c3.78223.70655,6.27637,2.53565,6.27637,6.10987,0,4.65527-4.19824,6.81689-9.43555,6.81689-5.27832,0-9.55957-2.20312-9.97558-7.56494Z"/><path class="cls-1" d="M148.16016,22.69434l.041.125H133.81934a4.35452,4.35452,0,0,0,4.53125,3.2417,3.46705,3.46705,0,0,0,3.07519-1.45459h6.65039c-.95605,4.15673-4.82129,6.7749-9.80859,6.7749-6.60938,0-11.01465-4.40576-11.01465-10.55713,0-6.11035,4.28027-10.51611,10.72363-10.51611,5.86035,0,10.30762,4.03173,10.30762,10.10009A14.12949,14.12949,0,0,1,148.16016,22.69434Zm-14.42383-3.82373h8.23047a3.735,3.735,0,0,0-3.99024-3.3667A4.11716,4.11716,0,0,0,133.73633,18.87061Z"/><path class="cls-1" d="M52.03906,57.99854h7.19141c-.873,7.31542-6.44336,12.30371-14.17383,12.30371-8.521,0-14.96387-6.19336-14.96387-14.71387,0-8.52149,6.44287-14.71387,14.96387-14.71387,7.73047,0,13.30078,4.98731,14.17383,12.30274H52.03906a6.81726,6.81726,0,0,0-7.02441-5.73536c-4.61328,0-7.814,3.44922-7.814,8.14649,0,4.69629,3.20069,8.14648,7.814,8.14648A6.81807,6.81807,0,0,0,52.03906,57.99854Z"/><path class="cls-1" d="M63.00977,42.61963A3.95239,3.95239,0,1,1,66.958,46.40186,3.8168,3.8168,0,0,1,63.00977,42.61963Zm7.35644,27.10058h-6.7334V49.561h6.7334Z"/><path class="cls-1" d="M91.1582,69.34619a17.74338,17.74338,0,0,1-6.11035.99707c-4.86328,0-8.10547-3.57422-8.10547-9.01953V55.33838H72.99414V49.561h3.94824v-6.8584h6.7334V49.561h6.8584v5.77734h-6.8584V61.1167c0,2.03613,1.16406,3.03418,3.15918,3.03418a20.10171,20.10171,0,0,0,3.5752-.499Z"/><path class="cls-1" d="M105.80566,79.03076h-7.0664l3.82422-9.06152L93.00391,49.561h7.14843l5.77735,12.42773L111.167,49.561h7.06641Z"/></svg>