<?xml version="1.0" ?><svg id="Layer_1" style="enable-background:new 0 0 64 64;" version="1.1" viewBox="0 0 64 64" xml:space="preserve" xmlns="http://www.w3.org/2000/svg" xmlns:xlink="http://www.w3.org/1999/xlink"><style type="text/css">
	.st0{fill:#62BEE7;}
	.st1{fill:#474E5E;}
	.st2{fill:#F3EEE4;}
	.st3{fill:#FFFFFF;}
	.st4{fill:#E8DCCA;}
	.st5{opacity:0.1;fill:#231F20;}
	.st6{fill:#506268;}
	.st7{fill:#EB028A;}
	.st8{fill:#EB028A;}
	.st9{fill:#9CCB5B;}
	.st10{fill:#404A4C;}
	.st11{fill:#676767;}
	.st12{fill:#E0E1E5;}
	.st13{fill:#9D9EA0;}
	.st14{fill:#B3B4B7;}
	.st15{opacity:0.1;}
	.st16{fill:#231F20;}
	.st17{fill:#FACC20;}
	.st18{fill:#FDEF34;}
	.st19{fill:#F7A90B;}
	.st20{fill:#20B8EA;}
	.st21{fill:#00A8EA;}
	.st22{fill:#33D3F4;}
	.st23{opacity:0.25;fill:#FFFFFF;}
	.st24{fill:#CACBCE;}
	.st25{fill:#2E3545;}
	.st26{fill:#8DAF4A;}
	.st27{fill:#F9C2AF;}
	.st28{fill:#AFDDF4;}
	.st29{fill:#677177;}
	.st30{fill:#FFEDB3;}
	.st31{fill:#ff99cf;}
	.st32{fill:#30A7BF;}
	.st33{fill:#4D5556;}
	.st34{opacity:0.35;}
	.st35{fill:#692A92;}
	.st36{fill:#99E9FA;}
	.st37{opacity:0.2;}
	.st38{opacity:3.000000e-02;}
	.st39{fill:#9ECA5B;}
	.st40{fill:#98BA56;}
	.st41{fill:#40EEFF;}
	.st42{fill:#FF6A52;}
	.st43{opacity:0.1;fill:#FFFFFF;}
	.st44{opacity:0.4;}
	.st45{fill:#57606D;}
	.st46{fill:#F1F1F1;}
	.st47{opacity:0.25;}
	.st48{opacity:5.000000e-02;fill:#231F20;}
	.st49{opacity:0.2;fill:#FFFFFF;}
	.st50{opacity:0.3;}
	.st51{fill:#FFD82F;}
	.st52{fill:#F4C121;}
	.st53{fill:#EF9D0A;}
	.st54{fill:#F9E532;}
	.st55{fill:#F4C01E;}
	.st56{fill:#FFE14D;}
	.st57{fill:#B7C156;}
	.st58{fill:#DBA92C;}
	.st59{fill:#363D4D;}
	.st60{fill:#3F4656;}
	.st61{fill:#463E33;}
	.st62{fill:none;}
	.st63{opacity:4.000000e-02;}
	.st64{fill:#4DB6AC;}
	.st65{fill:#CADE49;}
	.st66{fill:#9FD343;}
	.st67{fill:#AAD643;}
	.st68{fill:#82C736;}
	.st69{opacity:0.3;fill:#FFFFFF;}
	.st70{fill:#FFD640;}
	.st71{opacity:0.5;}
	.st72{opacity:0.6;}
</style><g><circle class="st35" cx="32" cy="32" r="32"/><g><path class="st7" d="M52.9,24.3H11.1c-1.1,0-2,0.9-2,2V52c0,1.1,0.9,1.9,1.9,1.9h42c1.1,0,1.9-0.9,1.9-1.9V26.3    C54.9,25.2,54,24.3,52.9,24.3z"/><g><path class="st8" d="M54.4,53.3c-0.4,0.4-0.9,0.6-1.4,0.6H11c-0.5,0-1-0.2-1.4-0.6l17.9-17.9h8.9l3.7,3.7L54.4,53.3z"/></g><g><path class="st31" d="M17.9,24.3H11c-0.5,0-1,0.2-1.4,0.6l8.3,8.3V24.3z"/></g><g><path class="st31" d="M53,24.3h-6.9v8.9l-5.9,5.9h0l14.2-14.2C54,24.5,53.5,24.3,53,24.3z"/></g><g><path class="st46" d="M17.9,19.9H12V11c0-1.6,1.3-3,3-3h0c1.6,0,3,1.3,3,3V19.9z"/></g><g><path class="st3" d="M43.1,8H23.5h-5.5h-3c1.6,0,3,1.3,3,3V14v5.8v13.3l5.9,5.9l3.7-3.7h8.9l3.7,3.7l5.9-5.9V11     C46.1,9.3,44.7,8,43.1,8z"/></g><g><rect class="st14" height="1.4" width="22" x="21" y="20.4"/><rect class="st14" height="1.4" width="22" x="21" y="23.4"/><rect class="st14" height="1.4" width="22" x="21" y="26.5"/><rect class="st14" height="1.4" width="14.6" x="24.7" y="29.5"/></g></g></g></svg>