<?xml version="1.0" encoding="utf-8"?>
<!-- Generator: Adobe Illustrator 24.3.0, SVG Export Plug-In . SVG Version: 6.00 Build 0)  -->
<svg version="1.1" id="Layer_1" xmlns:sketch="http://www.bohemiancoding.com/sketch/ns"
	 xmlns="http://www.w3.org/2000/svg" xmlns:xlink="http://www.w3.org/1999/xlink" x="0px" y="0px" width="156.7px" height="93.2px"
	 viewBox="0 0 156.7 93.2" style="enable-background:new 0 0 156.7 93.2;" xml:space="preserve">
<style type="text/css">
	.st0{fill:#FFFFFF;}
	.st1{fill-rule:evenodd;clip-rule:evenodd;fill:#791D5C;}
	.st2{fill-rule:evenodd;clip-rule:evenodd;fill:#231E20;}
	.st3{fill-rule:evenodd;clip-rule:evenodd;fill:#BC1E8C;}
</style>
<polygon class="st0" points="0,0 0,88.5 136,93.1 156.7,0 "/>
<desc>Created with Sketch.</desc>
<g id="Page-1" sketch:type="MSPage">
	<g id="_x33_" sketch:type="MSArtboardGroup">
		<g id="Group" transform="translate(2.000000, 3.000000)" sketch:type="MSLayerGroup">
			<path id="Fill-1" sketch:type="MSShapeGroup" class="st1" d="M11.8,9.5h10.9v3.9h-6.1V18H22v3.8h-5.4v4.7h6.5v4H11.8V9.5"/>
			<path id="Fill-4" sketch:type="MSShapeGroup" class="st1" d="M27.2,19.3l-3.9-9.8h5.1l1.7,6.2L32,9.5h4.1l-3.5,9.8l4.5,11.2H32
				l-2.3-7.6l-2.2,7.6h-4.2L27.2,19.3"/>
			<path id="Fill-5" sketch:type="MSShapeGroup" class="st1" d="M37.5,9.5h10.9v3.9h-6.1V18h5.4v3.8h-5.4v4.7h6.5v4H37.5V9.5"/>
			<path id="Fill-6" sketch:type="MSShapeGroup" class="st1" d="M57.8,30.5H53V13.4h-4V9.5h12.8v3.9h-4V30.5"/>
			<path id="Fill-7" sketch:type="MSShapeGroup" class="st1" d="M62,9.5h10.9v3.9h-6.1V18h5.4v3.8h-5.4v4.7h6.5v4H62V9.5"/>
			<path id="Fill-8" sketch:type="MSShapeGroup" class="st1" d="M80.1,19.2c1.3,0,1.7-0.6,1.7-2.9c0-2.6-0.4-3.5-1.7-3.5h-1v6.4
				H80.1L80.1,19.2z M74.3,9.5h6.4c2.7,0,3.8,0.5,5,2.2c0.7,1.2,1.1,2.6,1.1,4.3c0,3.3-0.9,4.6-3.5,4.9c1,0.4,1.7,0.8,2.2,1.7
				c0.3,0.5,0.5,1.2,0.6,2c0,0.2,0.1,0.4,0.1,1.3c0,0.4,0.1,1,0.1,1.4c0.1,1.3,0.2,2,0.4,3.2h-4.9c-0.1-1.2-0.2-1.6-0.2-3.8
				c0-3.8-0.2-4.3-1.8-4.3H79v8.1h-4.8L74.3,9.5L74.3,9.5z"/>
			<path id="Fill-10" sketch:type="MSShapeGroup" class="st2" d="M11.8,31.6h4.1L20,41v-9.4h3.9v21h-3.4l-4.7-11v10.9h-4V31.6"/>
			<path id="Fill-12" sketch:type="MSShapeGroup" class="st2" d="M29.9,43c0,5,0.3,6.2,1.6,6.2c1.1,0,1.5-0.8,1.6-3.7v-3.6
				c0-1.4,0-4.1-0.1-5c-0.1-1.7-0.5-2.4-1.5-2.4c-0.6,0-1,0.3-1.3,0.9c-0.3,0.8-0.4,1.5-0.4,6.4L29.9,43L29.9,43z M36.8,34
				c1,1.7,1.3,3.9,1.3,8.6c0,4.4-0.4,6.2-1.5,7.9c-1.1,1.6-2.9,2.4-5.2,2.4c-2.5,0-4.5-1.1-5.6-3.1c-0.7-1.3-1-3.4-1-6.8
				c0-3.8,0.3-6.4,1-8.2c0.9-2.3,3-3.7,5.7-3.7C33.9,31.2,35.7,32.1,36.8,34L36.8,34z"/>
			<path id="Fill-13" sketch:type="MSShapeGroup" class="st2" d="M45,41.3c1.3,0,1.7-0.6,1.7-2.9c0-2.6-0.4-3.5-1.7-3.5h-1v6.4H45
				L45,41.3z M39.2,31.6h6.4c2.7,0,3.8,0.5,5,2.2c0.8,1.2,1.2,2.6,1.2,4.3c0,3.3-0.9,4.6-3.5,4.9c1,0.4,1.7,0.8,2.2,1.7
				c0.3,0.5,0.5,1.2,0.6,2c0,0.2,0.1,0.4,0.1,1.3c0,0.4,0.1,1,0.1,1.4c0.1,1.3,0.2,2,0.4,3.2h-4.9c-0.1-1.2-0.2-1.6-0.2-3.8
				c0-3.8-0.2-4.3-1.8-4.3H44v8.1h-4.8V31.6L39.2,31.6z"/>
			<path id="Fill-14" sketch:type="MSShapeGroup" class="st2" d="M60.2,52.6h-4.8V35.5h-4v-3.9h12.8v3.9h-4L60.2,52.6"/>
			<path id="Fill-15" sketch:type="MSShapeGroup" class="st2" d="M64.9,31.6h4.8v8h2.9v-8h4.8v21h-4.8V42.5h-2.9v10.1h-4.8V31.6"/>
			<path id="Fill-16" sketch:type="MSShapeGroup" class="st2" d="M91,43.5c0.1,1.1,0.2,2.1,0.2,3.1c0,4.3-2,6.5-5.9,6.5
				c-2.8,0-4.9-1-5.9-2.7c-0.8-1.4-1.1-2.9-1.1-5.9c0-5.9,0.4-8.9,1.4-10.6s2.6-2.5,5-2.5c4.2,0,6,1.7,6,5.9c0,0.8,0,1.4-0.2,2.5
				l-4.3,0.1c0.1-1,0.1-1.4,0.1-1.8c0-2.4-0.4-3.4-1.4-3.4s-1.5,1-1.5,3.4l-0.1,4.3c0,0.6,0.1,2.6,0.1,3.5c0.2,2.3,0.5,3,1.7,3
				c1.1,0,1.6-1,1.6-3c0-0.7,0-1.4-0.1-2.2L86.5,43l4.3,0.1L91,43.5"/>
			<path id="Fill-17" sketch:type="MSShapeGroup" class="st2" d="M96.5,43c0,5,0.3,6.2,1.6,6.2c1.1,0,1.5-0.8,1.6-3.7v-3.6
				c0-1.4,0-4.1-0.1-5c-0.1-1.7-0.5-2.4-1.5-2.4c-0.6,0-1,0.3-1.3,0.9c-0.3,0.8-0.4,1.5-0.4,6.4V43C96.4,43,96.5,43,96.5,43z
				 M103.4,34c1,1.7,1.3,3.9,1.3,8.6c0,4.4-0.4,6.2-1.5,7.9c-1.1,1.6-2.9,2.4-5.2,2.4c-2.5,0-4.5-1.1-5.6-3.1c-0.7-1.3-1-3.4-1-6.8
				c0-3.8,0.3-6.4,1-8.2c0.9-2.3,3-3.7,5.7-3.7C100.4,31.2,102.3,32.1,103.4,34L103.4,34z"/>
			<path id="Fill-18" sketch:type="MSShapeGroup" class="st2" d="M113.3,52.6h-4.8V35.5h-4v-3.9h12.8v3.9h-4V52.6"/>
			<path id="Fill-19" sketch:type="MSShapeGroup" class="st2" d="M126.4,52.6h-4.8V35.5h-4v-3.9h12.8v3.9h-4L126.4,52.6"/>
			<path id="Fill-21" sketch:type="MSShapeGroup" class="st3" d="M20.6,74.2h-4.8v-17h-4v-3.9h12.8v3.9h-4V74.2"/>
			<path id="Fill-23" sketch:type="MSShapeGroup" class="st3" d="M25.3,53.2h4.8v8H33v-8h4.8v21H33v-10h-2.9v10.1h-4.8V53.2"/>
			<path id="Fill-24" sketch:type="MSShapeGroup" class="st3" d="M38.8,53.2h10.9v3.9h-6.1v4.6H49v3.8h-5.4v4.7h6.5v3.9H38.8V53.2"
				/>
			<path id="Fill-25" sketch:type="MSShapeGroup" class="st3" d="M57.5,67.6l-1-7l-1.1,7H57.5L57.5,67.6z M54.5,53.2h4.7l4.2,21
				h-4.9l-0.6-3.7h-3l-0.6,3.7h-4.1L54.5,53.2L54.5,53.2z"/>
			<path id="Fill-26" sketch:type="MSShapeGroup" class="st3" d="M70.4,74.2h-4.8v-17h-4v-3.9h12.8v3.9h-4V74.2"/>
			<path id="Fill-27" sketch:type="MSShapeGroup" class="st3" d="M80.5,62.9c1.3,0,1.7-0.6,1.7-2.9c0-2.6-0.4-3.5-1.7-3.5h-1v6.4
				H80.5L80.5,62.9z M74.7,53.2h6.4c2.7,0,3.8,0.5,5,2.2c0.8,1.2,1.2,2.6,1.2,4.3c0,3.3-0.9,4.6-3.5,4.9c1,0.4,1.7,0.8,2.2,1.7
				c0.3,0.5,0.5,1.2,0.6,2c0,0.2,0.1,0.4,0.1,1.3c0,0.4,0.1,1,0.1,1.4c0.1,1.3,0.2,2,0.4,3.2h-4.9c-0.1-1.2-0.2-1.6-0.2-3.8
				c0-3.8-0.2-4.3-1.8-4.3h-0.8v8.1h-4.8L74.7,53.2L74.7,53.2z"/>
			<path id="Fill-28" sketch:type="MSShapeGroup" class="st3" d="M88.2,53.2h10.9v3.9H93v4.6h5.4v3.8H93v4.7h6.5v3.9H88.2V53.2"/>
		</g>
	</g>
</g>
</svg>
